<svg width="15" height="13" viewBox="0 0 15 13" fill="none" xmlns="http://www.w3.org/2000/svg"><path d="M2.344.656c.234 0 .469.235.469.469V3a.482.482 0 0 1-.47.469H.47A.463.463 0 0 1 0 3V1.125C0 .891.205.656.469.656h1.875Zm0 4.688c.234 0 .469.234.469.468v1.875a.482.482 0 0 1-.47.47H.47A.463.463 0 0 1 0 7.686V5.813c0-.234.205-.468.469-.468h1.875Zm0 4.687c.234 0 .469.235.469.469v1.875a.482.482 0 0 1-.47.469H.47A.463.463 0 0 1 0 12.375V10.5c0-.234.205-.469.469-.469h1.875ZM14.53 6.047c.235 0 .469.234.469.469v.468a.482.482 0 0 1-.469.47H5.156a.463.463 0 0 1-.468-.47v-.468c0-.235.205-.47.468-.47h9.375Zm0 4.687c.235 0 .469.235.469.47v.468a.482.482 0 0 1-.469.469H5.156a.463.463 0 0 1-.468-.47v-.468c0-.234.205-.469.468-.469h9.375Zm0-9.375c.235 0 .469.235.469.47v.468a.482.482 0 0 1-.469.469H5.156a.463.463 0 0 1-.468-.47v-.468c0-.234.205-.469.468-.469h9.375Z" fill="#fff"/></svg>