<svg width="18" height="16" viewBox="0 0 18 16" fill="none" xmlns="http://www.w3.org/2000/svg"><path d="M15.621 9.723a.72.72 0 0 1-.703.527H6.334l.205.938h7.852c.44 0 .79.439.674.878l-.147.704c.557.263.938.82.938 1.464 0 .909-.762 1.641-1.641 1.641-.908 0-1.64-.732-1.64-1.64 0-.44.175-.85.468-1.172H6.92c.293.322.498.732.498 1.171 0 .909-.762 1.641-1.64 1.641-.909 0-1.641-.732-1.641-1.64 0-.587.322-1.114.82-1.407L2.877 2.75H.856a.677.677 0 0 1-.704-.703v-.469c0-.38.293-.703.704-.703h2.988c.322 0 .615.264.703.586l.264 1.289h11.484c.469 0 .791.44.703.879l-1.377 6.094Z" fill="#BA2C73"/></svg>