<svg width="16" height="19" viewBox="0 0 16 19" fill="none" xmlns="http://www.w3.org/2000/svg"><path d="M11.004 10.938c2.601 0 4.746 2.144 4.746 4.746v.879c0 .949-.773 1.687-1.688 1.687H1.688C.738 18.25 0 17.512 0 16.562v-.878c0-2.602 2.11-4.746 4.71-4.746 1.02 0 1.478.562 3.165.562 1.652 0 2.11-.563 3.129-.563Zm3.059 5.624v-.878a3.06 3.06 0 0 0-3.06-3.059c-.526 0-1.335.563-3.128.563-1.828 0-2.637-.563-3.164-.563-1.688 0-3.024 1.371-3.024 3.059v.879h12.376Zm-6.188-6.187a5.041 5.041 0 0 1-5.063-5.063A5.064 5.064 0 0 1 7.875.25c2.777 0 5.063 2.285 5.063 5.063a5.064 5.064 0 0 1-5.063 5.062Zm0-8.438C6.012 1.938 4.5 3.484 4.5 5.313a3.376 3.376 0 0 0 3.375 3.375c1.828 0 3.375-1.511 3.375-3.374 0-1.829-1.547-3.375-3.375-3.375Z" fill="#BA2C73"/></svg>